<svg xmlns="http://www.w3.org/2000/svg" width="630" height="390" viewBox="0 0 630 390">
<rect width="630" height="390" fill="#ffffff"/>
<text x="150.0" y="28" font-family="'Noto Sans CJK KR','Noto Sans KR','Malgun Gothic',sans-serif" font-size="14" text-anchor="middle" fill="#222">기존 구조 &#8212; 4&#215;4 블록</text>
<text x="480.0" y="28" font-family="'Noto Sans CJK KR','Noto Sans KR','Malgun Gothic',sans-serif" font-size="14" text-anchor="middle" fill="#222">배분 구조 &#8212; 5&#215;5 블록 + 보너스</text>
<rect x="126" y="110" width="96" height="96" fill="#f2efe9"/>
<line x1="30" y1="50" x2="30" y2="290" stroke="#7d7d7d" stroke-width="1"/>
<line x1="30" y1="50" x2="270" y2="50" stroke="#7d7d7d" stroke-width="1"/>
<line x1="78" y1="50" x2="78" y2="290" stroke="#7d7d7d" stroke-width="1"/>
<line x1="30" y1="98" x2="270" y2="98" stroke="#7d7d7d" stroke-width="1"/>
<line x1="126" y1="50" x2="126" y2="290" stroke="#7d7d7d" stroke-width="1"/>
<line x1="30" y1="146" x2="270" y2="146" stroke="#7d7d7d" stroke-width="1"/>
<line x1="174" y1="50" x2="174" y2="290" stroke="#7d7d7d" stroke-width="1"/>
<line x1="30" y1="194" x2="270" y2="194" stroke="#7d7d7d" stroke-width="1"/>
<line x1="222" y1="50" x2="222" y2="290" stroke="#7d7d7d" stroke-width="1"/>
<line x1="30" y1="242" x2="270" y2="242" stroke="#7d7d7d" stroke-width="1"/>
<line x1="270" y1="50" x2="270" y2="290" stroke="#7d7d7d" stroke-width="1"/>
<line x1="30" y1="290" x2="270" y2="290" stroke="#7d7d7d" stroke-width="1"/>
<circle cx="48" cy="80" r="3.4" fill="#1a1a1a"/>
<circle cx="84" cy="92" r="3.4" fill="#1a1a1a"/>
<circle cx="132" cy="56" r="3.4" fill="#1a1a1a"/>
<circle cx="180" cy="80" r="3.4" fill="#1a1a1a"/>
<circle cx="228" cy="68" r="3.4" fill="#1a1a1a"/>
<circle cx="72" cy="104" r="3.4" fill="#1a1a1a"/>
<circle cx="84" cy="140" r="3.4" fill="#1a1a1a"/>
<circle cx="132" cy="116" r="3.4" fill="#1a1a1a"/>
<circle cx="180" cy="140" r="3.4" fill="#1a1a1a"/>
<circle cx="240" cy="104" r="3.4" fill="#1a1a1a"/>
<circle cx="72" cy="152" r="3.4" fill="#1a1a1a"/>
<circle cx="96" cy="152" r="3.4" fill="#1a1a1a"/>
<circle cx="144" cy="152" r="3.4" fill="#1a1a1a"/>
<circle cx="216" cy="176" r="3.4" fill="#1a1a1a"/>
<circle cx="228" cy="164" r="3.4" fill="#1a1a1a"/>
<circle cx="48" cy="224" r="3.4" fill="#1a1a1a"/>
<circle cx="96" cy="200" r="3.4" fill="#1a1a1a"/>
<circle cx="132" cy="224" r="3.4" fill="#1a1a1a"/>
<circle cx="180" cy="200" r="3.4" fill="#1a1a1a"/>
<circle cx="264" cy="212" r="3.4" fill="#1a1a1a"/>
<circle cx="60" cy="284" r="3.4" fill="#1a1a1a"/>
<circle cx="120" cy="284" r="3.4" fill="#1a1a1a"/>
<circle cx="156" cy="272" r="3.4" fill="#1a1a1a"/>
<circle cx="192" cy="260" r="3.4" fill="#1a1a1a"/>
<circle cx="228" cy="260" r="3.4" fill="#1a1a1a"/>
<rect x="456" y="110" width="96" height="96" fill="#f2efe9"/>
<rect x="420" y="110" width="60" height="60" fill="#ded5c4"/>
<rect x="480" y="110" width="60" height="60" fill="#ded5c4"/>
<rect x="420" y="170" width="60" height="60" fill="#ded5c4"/>
<rect x="480" y="170" width="60" height="60" fill="#ded5c4"/>
<line x1="360" y1="50" x2="360" y2="290" stroke="#7d7d7d" stroke-width="1"/>
<line x1="360" y1="50" x2="600" y2="50" stroke="#7d7d7d" stroke-width="1"/>
<line x1="420" y1="50" x2="420" y2="290" stroke="#7d7d7d" stroke-width="1"/>
<line x1="360" y1="110" x2="600" y2="110" stroke="#7d7d7d" stroke-width="1"/>
<line x1="480" y1="50" x2="480" y2="290" stroke="#7d7d7d" stroke-width="1"/>
<line x1="360" y1="170" x2="600" y2="170" stroke="#7d7d7d" stroke-width="1"/>
<line x1="540" y1="50" x2="540" y2="290" stroke="#7d7d7d" stroke-width="1"/>
<line x1="360" y1="230" x2="600" y2="230" stroke="#7d7d7d" stroke-width="1"/>
<line x1="600" y1="50" x2="600" y2="290" stroke="#7d7d7d" stroke-width="1"/>
<line x1="360" y1="290" x2="600" y2="290" stroke="#7d7d7d" stroke-width="1"/>
<circle cx="414" cy="92" r="3.4" fill="#1a1a1a"/>
<circle cx="462" cy="92" r="3.4" fill="#1a1a1a"/>
<circle cx="534" cy="104" r="3.4" fill="#1a1a1a"/>
<circle cx="558" cy="68" r="3.4" fill="#1a1a1a"/>
<circle cx="402" cy="164" r="3.4" fill="#1a1a1a"/>
<circle cx="438" cy="164" r="3.4" fill="#1a1a1a"/>
<circle cx="522" cy="116" r="3.4" fill="#1a1a1a"/>
<circle cx="558" cy="140" r="3.4" fill="#1a1a1a"/>
<circle cx="414" cy="176" r="3.4" fill="#1a1a1a"/>
<circle cx="474" cy="176" r="3.4" fill="#1a1a1a"/>
<circle cx="522" cy="212" r="3.4" fill="#1a1a1a"/>
<circle cx="558" cy="224" r="3.4" fill="#1a1a1a"/>
<circle cx="366" cy="284" r="3.4" fill="#1a1a1a"/>
<circle cx="426" cy="284" r="3.4" fill="#1a1a1a"/>
<circle cx="486" cy="236" r="3.4" fill="#1a1a1a"/>
<circle cx="558" cy="248" r="3.4" fill="#1a1a1a"/>
<circle cx="426" cy="164" r="3.4" fill="#ffffff" stroke="#a8321e" stroke-width="2"/>
<circle cx="450" cy="152" r="3.4" fill="#ffffff" stroke="#a8321e" stroke-width="2"/>
<circle cx="534" cy="152" r="3.4" fill="#ffffff" stroke="#a8321e" stroke-width="2"/>
<circle cx="534" cy="128" r="3.4" fill="#ffffff" stroke="#a8321e" stroke-width="2"/>
<circle cx="510" cy="128" r="3.4" fill="#ffffff" stroke="#a8321e" stroke-width="2"/>
<circle cx="426" cy="212" r="3.4" fill="#ffffff" stroke="#a8321e" stroke-width="2"/>
<circle cx="462" cy="176" r="3.4" fill="#ffffff" stroke="#a8321e" stroke-width="2"/>
<circle cx="522" cy="200" r="3.4" fill="#ffffff" stroke="#a8321e" stroke-width="2"/>
<circle cx="486" cy="224" r="3.4" fill="#ffffff" stroke="#a8321e" stroke-width="2"/>
<text x="150.0" y="318" font-family="'Noto Sans CJK KR','Noto Sans KR','Malgun Gothic',sans-serif" font-size="13" text-anchor="middle" fill="#222">블록 25개, 블록마다 1발 &#8212; 합 25발</text>
<text x="480.0" y="318" font-family="'Noto Sans CJK KR','Noto Sans KR','Malgun Gothic',sans-serif" font-size="13" text-anchor="middle" fill="#222">블록 16개 &#215; 1발 = 16발</text>
<text x="480.0" y="338" font-family="'Noto Sans CJK KR','Noto Sans KR','Malgun Gothic',sans-serif" font-size="13" text-anchor="middle" fill="#222">+ 보너스 9발 (36%) &#8212; 합 25발</text>
<g>
<circle cx="37" cy="366" r="3.4" fill="#1a1a1a"/><text x="50" y="370" font-family="'Noto Sans CJK KR','Noto Sans KR','Malgun Gothic',sans-serif" font-size="12" text-anchor="start" fill="#222">기반 ray</text>
<circle cx="140" cy="366" r="3.4" fill="#ffffff" stroke="#a8321e" stroke-width="2"/><text x="153" y="370" font-family="'Noto Sans CJK KR','Noto Sans KR','Malgun Gothic',sans-serif" font-size="12" text-anchor="start" fill="#222">보너스 ray</text>
<rect x="255" y="359" width="14" height="13" fill="#f2efe9" stroke="#c9c4ba" stroke-width="0.7"/><text x="275" y="370" font-family="'Noto Sans CJK KR','Noto Sans KR','Malgun Gothic',sans-serif" font-size="12" text-anchor="start" fill="#222">잔차가 큰 영역</text>
<rect x="400" y="359" width="14" height="13" fill="#ded5c4" stroke="#c9c4ba" stroke-width="0.7"/><text x="420" y="370" font-family="'Noto Sans CJK KR','Noto Sans KR','Malgun Gothic',sans-serif" font-size="12" text-anchor="start" fill="#222">보너스를 받은 블록</text>
</g>
</svg>